<mxfile host="app.diagrams.net" agent="Mozilla/5.0 (Windows NT 10.0; Win64; x64) AppleWebKit/537.36 (KHTML, like Gecko) Chrome/135.0.0.0 Safari/537.36" version="26.2.9">
  <diagram name="Página-1" id="eabEXS1Ryqrm_xw4TigF">
    <mxGraphModel dx="2881" dy="988" grid="1" gridSize="10" guides="1" tooltips="1" connect="1" arrows="1" fold="1" page="1" pageScale="1" pageWidth="827" pageHeight="1169" math="0" shadow="0">
      <root>
        <mxCell id="0" />
        <mxCell id="1" parent="0" />
        <mxCell id="TVjpcM7RhXkUmp72Mp0O-45" value="" style="group" vertex="1" connectable="0" parent="1">
          <mxGeometry x="-213" y="370" width="1040" height="480" as="geometry" />
        </mxCell>
        <mxCell id="PDoaly09riqW8v3KBpbK-12" value="Tienen" style="rhombus;whiteSpace=wrap;html=1;" parent="TVjpcM7RhXkUmp72Mp0O-45" vertex="1">
          <mxGeometry x="660" y="360" width="80" height="40" as="geometry" />
        </mxCell>
        <mxCell id="PDoaly09riqW8v3KBpbK-15" value="Equipan" style="rhombus;whiteSpace=wrap;html=1;" parent="TVjpcM7RhXkUmp72Mp0O-45" vertex="1">
          <mxGeometry x="660" y="80" width="80" height="40" as="geometry" />
        </mxCell>
        <mxCell id="PDoaly09riqW8v3KBpbK-22" value="Compran" style="rhombus;whiteSpace=wrap;html=1;" parent="TVjpcM7RhXkUmp72Mp0O-45" vertex="1">
          <mxGeometry x="540" y="220" width="80" height="40" as="geometry" />
        </mxCell>
        <mxCell id="PDoaly09riqW8v3KBpbK-24" value="" style="ellipse;whiteSpace=wrap;html=1;aspect=fixed;" parent="TVjpcM7RhXkUmp72Mp0O-45" vertex="1">
          <mxGeometry x="840" y="235" width="10" height="10" as="geometry" />
        </mxCell>
        <mxCell id="PDoaly09riqW8v3KBpbK-28" value="" style="triangle;whiteSpace=wrap;html=1;rotation=0;" parent="TVjpcM7RhXkUmp72Mp0O-45" vertex="1">
          <mxGeometry x="850" y="220" width="20" height="40" as="geometry" />
        </mxCell>
        <mxCell id="PDoaly09riqW8v3KBpbK-45" value="Usan" style="rhombus;whiteSpace=wrap;html=1;" parent="TVjpcM7RhXkUmp72Mp0O-45" vertex="1">
          <mxGeometry x="220" y="80" width="80" height="40" as="geometry" />
        </mxCell>
        <mxCell id="PDoaly09riqW8v3KBpbK-47" value="Interactuan" style="rhombus;whiteSpace=wrap;html=1;" parent="TVjpcM7RhXkUmp72Mp0O-45" vertex="1">
          <mxGeometry x="220" y="360" width="80" height="40" as="geometry" />
        </mxCell>
        <mxCell id="PDoaly09riqW8v3KBpbK-57" value="" style="verticalLabelPosition=bottom;verticalAlign=top;html=1;shape=mxgraph.basic.arc;startAngle=0.25;endAngle=0.7515914963824541;rotation=-90;" parent="TVjpcM7RhXkUmp72Mp0O-45" vertex="1">
          <mxGeometry x="880" y="230" width="20" height="20" as="geometry" />
        </mxCell>
        <mxCell id="TVjpcM7RhXkUmp72Mp0O-2" value="&lt;font style=&quot;font-size: 9px;&quot;&gt;Cantidad&lt;/font&gt;" style="ellipse;whiteSpace=wrap;html=1;align=center;" vertex="1" parent="TVjpcM7RhXkUmp72Mp0O-45">
          <mxGeometry x="720" y="420" width="40" height="20" as="geometry" />
        </mxCell>
        <mxCell id="TVjpcM7RhXkUmp72Mp0O-3" value="" style="endArrow=none;html=1;rounded=0;entryX=0.5;entryY=0;entryDx=0;entryDy=0;exitX=1;exitY=1;exitDx=0;exitDy=0;" edge="1" parent="TVjpcM7RhXkUmp72Mp0O-45" source="PDoaly09riqW8v3KBpbK-12" target="TVjpcM7RhXkUmp72Mp0O-2">
          <mxGeometry relative="1" as="geometry">
            <mxPoint x="420" y="510" as="sourcePoint" />
            <mxPoint x="580" y="510" as="targetPoint" />
          </mxGeometry>
        </mxCell>
        <mxCell id="TVjpcM7RhXkUmp72Mp0O-4" value="personajes_principales" style="swimlane;childLayout=stackLayout;horizontal=1;startSize=50;horizontalStack=0;rounded=1;fontSize=14;fontStyle=0;strokeWidth=2;resizeParent=0;resizeLast=1;shadow=0;dashed=0;align=center;arcSize=4;whiteSpace=wrap;html=1;" vertex="1" parent="TVjpcM7RhXkUmp72Mp0O-45">
          <mxGeometry x="360" y="40" width="160" height="400" as="geometry" />
        </mxCell>
        <mxCell id="TVjpcM7RhXkUmp72Mp0O-5" value="&lt;b&gt;&lt;u&gt;id&lt;/u&gt;&lt;/b&gt;&lt;div&gt;nombre&lt;/div&gt;&lt;div&gt;&lt;b&gt;habilidad_básica_id&lt;/b&gt;&lt;/div&gt;&lt;div&gt;&lt;b&gt;habilidad_secundaria_id&lt;/b&gt;&lt;/div&gt;&lt;div&gt;&lt;b&gt;habilidad_especial_id&lt;/b&gt;&lt;/div&gt;&lt;div&gt;&lt;span style=&quot;background-color: transparent; white-space-collapse: preserve; font-variant-numeric: normal; font-variant-east-asian: normal; font-variant-alternates: normal; font-variant-position: normal; font-variant-emoji: normal; vertical-align: baseline;&quot;&gt;&lt;font style=&quot;color: rgb(0, 0, 0);&quot;&gt;gráficos&lt;/font&gt;&lt;/span&gt;&lt;/div&gt;&lt;div&gt;&lt;span style=&quot;background-color: transparent; white-space-collapse: preserve; font-variant-numeric: normal; font-variant-east-asian: normal; font-variant-alternates: normal; font-variant-position: normal; font-variant-emoji: normal; vertical-align: baseline; color: rgb(0, 0, 255);&quot;&gt;&lt;font style=&quot;color: rgb(0, 0, 0);&quot;&gt;vida_actual&lt;/font&gt;&lt;/span&gt;&lt;/div&gt;&lt;div&gt;&lt;span style=&quot;background-color: transparent; white-space-collapse: preserve; font-variant-numeric: normal; font-variant-east-asian: normal; font-variant-alternates: normal; font-variant-position: normal; font-variant-emoji: normal; vertical-align: baseline; color: rgb(0, 0, 255);&quot;&gt;&lt;font style=&quot;color: rgb(0, 0, 0);&quot;&gt;vida_max&lt;/font&gt;&lt;/span&gt;&lt;/div&gt;&lt;div&gt;&lt;span style=&quot;background-color: transparent; white-space-collapse: preserve; font-variant-numeric: normal; font-variant-east-asian: normal; font-variant-alternates: normal; font-variant-position: normal; font-variant-emoji: normal; vertical-align: baseline; color: rgb(0, 0, 255);&quot;&gt;&lt;font style=&quot;color: rgb(0, 0, 0);&quot;&gt;energia_actual&lt;/font&gt;&lt;/span&gt;&lt;/div&gt;&lt;div&gt;&lt;span style=&quot;background-color: transparent; white-space-collapse: preserve; font-variant-numeric: normal; font-variant-east-asian: normal; font-variant-alternates: normal; font-variant-position: normal; font-variant-emoji: normal; vertical-align: baseline; color: rgb(0, 0, 255);&quot;&gt;&lt;font style=&quot;color: rgb(0, 0, 0);&quot;&gt;energia_max&lt;/font&gt;&lt;/span&gt;&lt;/div&gt;&lt;div&gt;&lt;span style=&quot;background-color: transparent; color: light-dark(rgb(0, 0, 0), rgb(255, 255, 255)); white-space-collapse: preserve; font-variant-numeric: normal; font-variant-east-asian: normal; font-variant-alternates: normal; font-variant-position: normal; font-variant-emoji: normal; vertical-align: baseline;&quot;&gt;fuerza_base&lt;/span&gt;&lt;/div&gt;&lt;div&gt;&lt;span style=&quot;background-color: transparent; color: light-dark(rgb(0, 0, 0), rgb(255, 255, 255)); white-space-collapse: preserve; font-variant-numeric: normal; font-variant-east-asian: normal; font-variant-alternates: normal; font-variant-position: normal; font-variant-emoji: normal; vertical-align: baseline;&quot;&gt;fuerza_actual&lt;/span&gt;&lt;/div&gt;&lt;div&gt;&lt;span style=&quot;background-color: transparent; color: light-dark(rgb(0, 0, 0), rgb(255, 255, 255)); white-space-collapse: preserve; font-variant-numeric: normal; font-variant-east-asian: normal; font-variant-alternates: normal; font-variant-position: normal; font-variant-emoji: normal; vertical-align: baseline;&quot;&gt;RF_base&lt;/span&gt;&lt;/div&gt;&lt;div&gt;&lt;span style=&quot;background-color: transparent; color: light-dark(rgb(0, 0, 0), rgb(255, 255, 255)); white-space-collapse: preserve; font-variant-numeric: normal; font-variant-east-asian: normal; font-variant-alternates: normal; font-variant-position: normal; font-variant-emoji: normal; vertical-align: baseline;&quot;&gt;RF_actual&lt;/span&gt;&lt;/div&gt;&lt;div&gt;&lt;span style=&quot;background-color: transparent; color: light-dark(rgb(0, 0, 0), rgb(255, 255, 255)); white-space-collapse: preserve; font-variant-numeric: normal; font-variant-east-asian: normal; font-variant-alternates: normal; font-variant-position: normal; font-variant-emoji: normal; vertical-align: baseline;&quot;&gt;PM_base&lt;/span&gt;&lt;/div&gt;&lt;div&gt;&lt;span style=&quot;background-color: transparent; color: light-dark(rgb(0, 0, 0), rgb(255, 255, 255)); white-space-collapse: preserve; font-variant-numeric: normal; font-variant-east-asian: normal; font-variant-alternates: normal; font-variant-position: normal; font-variant-emoji: normal; vertical-align: baseline;&quot;&gt;PM_actual&lt;/span&gt;&lt;/div&gt;&lt;div&gt;&lt;span style=&quot;background-color: transparent; color: light-dark(rgb(0, 0, 0), rgb(255, 255, 255)); white-space-collapse: preserve; font-variant-numeric: normal; font-variant-east-asian: normal; font-variant-alternates: normal; font-variant-position: normal; font-variant-emoji: normal; vertical-align: baseline;&quot;&gt;RM_base&lt;/span&gt;&lt;/div&gt;&lt;div&gt;&lt;span style=&quot;background-color: transparent; color: light-dark(rgb(0, 0, 0), rgb(255, 255, 255)); white-space-collapse: preserve; font-variant-numeric: normal; font-variant-east-asian: normal; font-variant-alternates: normal; font-variant-position: normal; font-variant-emoji: normal; vertical-align: baseline;&quot;&gt;RM_actual&lt;/span&gt;&lt;/div&gt;&lt;div&gt;&lt;span style=&quot;background-color: transparent; color: light-dark(rgb(0, 0, 0), rgb(255, 255, 255)); white-space-collapse: preserve; font-variant-numeric: normal; font-variant-east-asian: normal; font-variant-alternates: normal; font-variant-position: normal; font-variant-emoji: normal; vertical-align: baseline;&quot;&gt;agilidad&lt;/span&gt;&lt;/div&gt;&lt;div&gt;&lt;span style=&quot;background-color: transparent; color: light-dark(rgb(0, 0, 0), rgb(255, 255, 255)); white-space-collapse: preserve; font-variant-numeric: normal; font-variant-east-asian: normal; font-variant-alternates: normal; font-variant-position: normal; font-variant-emoji: normal; vertical-align: baseline;&quot;&gt;incapacitado&lt;/span&gt;&lt;/div&gt;&lt;div&gt;&lt;span style=&quot;background-color: transparent; color: light-dark(rgb(0, 0, 0), rgb(255, 255, 255)); white-space-collapse: preserve; font-variant-numeric: normal; font-variant-east-asian: normal; font-variant-alternates: normal; font-variant-position: normal; font-variant-emoji: normal; vertical-align: baseline;&quot;&gt;enfermo&lt;/span&gt;&lt;/div&gt;&lt;div&gt;&lt;span style=&quot;background-color: transparent; color: light-dark(rgb(0, 0, 0), rgb(255, 255, 255)); white-space-collapse: preserve; font-variant-numeric: normal; font-variant-east-asian: normal; font-variant-alternates: normal; font-variant-position: normal; font-variant-emoji: normal; vertical-align: baseline;&quot;&gt;descripción&lt;/span&gt;&lt;/div&gt;" style="align=left;strokeColor=none;fillColor=none;spacingLeft=4;spacingRight=4;fontSize=12;verticalAlign=top;resizable=0;rotatable=0;part=1;html=1;whiteSpace=wrap;" vertex="1" parent="TVjpcM7RhXkUmp72Mp0O-4">
          <mxGeometry y="50" width="160" height="350" as="geometry" />
        </mxCell>
        <mxCell id="TVjpcM7RhXkUmp72Mp0O-8" value="habilidades" style="swimlane;childLayout=stackLayout;horizontal=1;startSize=50;horizontalStack=0;rounded=1;fontSize=14;fontStyle=0;strokeWidth=2;resizeParent=0;resizeLast=1;shadow=0;dashed=0;align=center;arcSize=4;whiteSpace=wrap;html=1;" vertex="1" parent="TVjpcM7RhXkUmp72Mp0O-45">
          <mxGeometry width="160" height="200" as="geometry" />
        </mxCell>
        <mxCell id="TVjpcM7RhXkUmp72Mp0O-9" value="&lt;span id=&quot;docs-internal-guid-08a8e337-7fff-b195-ec3b-6723dde83e79&quot;&gt;&lt;span style=&quot;font-family: Arial, sans-serif; background-color: transparent; font-weight: 700; font-variant-numeric: normal; font-variant-east-asian: normal; font-variant-alternates: normal; font-variant-position: normal; font-variant-emoji: normal; text-decoration-line: underline; text-decoration-skip-ink: none; vertical-align: baseline; white-space-collapse: preserve;&quot;&gt;&lt;font style=&quot;font-size: 12px;&quot;&gt;id&lt;/font&gt;&lt;/span&gt;&lt;/span&gt;&lt;div&gt;&lt;span&gt;&lt;span style=&quot;font-family: Arial, sans-serif; background-color: transparent; font-variant-numeric: normal; font-variant-east-asian: normal; font-variant-alternates: normal; font-variant-position: normal; font-variant-emoji: normal; vertical-align: baseline; white-space-collapse: preserve;&quot;&gt;&lt;font style=&quot;font-size: 12px;&quot;&gt;nombre&lt;/font&gt;&lt;/span&gt;&lt;/span&gt;&lt;/div&gt;&lt;div&gt;&lt;span&gt;&lt;span style=&quot;font-family: Arial, sans-serif; background-color: transparent; font-variant-numeric: normal; font-variant-east-asian: normal; font-variant-alternates: normal; font-variant-position: normal; font-variant-emoji: normal; vertical-align: baseline; white-space-collapse: preserve;&quot;&gt;&lt;font style=&quot;font-size: 12px;&quot;&gt;cantidad(int)&lt;/font&gt;&lt;/span&gt;&lt;/span&gt;&lt;/div&gt;&lt;div&gt;&lt;span&gt;&lt;span style=&quot;font-family: Arial, sans-serif; background-color: transparent; font-variant-numeric: normal; font-variant-east-asian: normal; font-variant-alternates: normal; font-variant-position: normal; font-variant-emoji: normal; vertical-align: baseline; white-space-collapse: preserve;&quot;&gt;&lt;font style=&quot;font-size: 12px;&quot;&gt;física(bool)&lt;/font&gt;&lt;/span&gt;&lt;/span&gt;&lt;/div&gt;&lt;div&gt;&lt;span&gt;&lt;span style=&quot;font-family: Arial, sans-serif; background-color: transparent; font-variant-numeric: normal; font-variant-east-asian: normal; font-variant-alternates: normal; font-variant-position: normal; font-variant-emoji: normal; vertical-align: baseline; white-space-collapse: preserve;&quot;&gt;&lt;font style=&quot;font-size: 12px;&quot;&gt;daño(bool)&lt;/font&gt;&lt;/span&gt;&lt;/span&gt;&lt;/div&gt;&lt;div&gt;&lt;span&gt;&lt;span style=&quot;font-family: Arial, sans-serif; background-color: transparent; font-variant-numeric: normal; font-variant-east-asian: normal; font-variant-alternates: normal; font-variant-position: normal; font-variant-emoji: normal; vertical-align: baseline; white-space-collapse: preserve;&quot;&gt;&lt;font style=&quot;font-size: 12px;&quot;&gt;vida(bool)&lt;/font&gt;&lt;/span&gt;&lt;/span&gt;&lt;/div&gt;&lt;div&gt;&lt;span&gt;&lt;span style=&quot;font-family: Arial, sans-serif; background-color: transparent; font-variant-numeric: normal; font-variant-east-asian: normal; font-variant-alternates: normal; font-variant-position: normal; font-variant-emoji: normal; vertical-align: baseline; white-space-collapse: preserve;&quot;&gt;&lt;font style=&quot;font-size: 12px;&quot;&gt;objetivo(3 valores)&lt;/font&gt;&lt;/span&gt;&lt;/span&gt;&lt;/div&gt;&lt;div&gt;&lt;span&gt;&lt;span style=&quot;font-family: Arial, sans-serif; background-color: transparent; font-variant-numeric: normal; font-variant-east-asian: normal; font-variant-alternates: normal; font-variant-position: normal; font-variant-emoji: normal; vertical-align: baseline; white-space-collapse: preserve;&quot;&gt;&lt;font style=&quot;font-size: 12px;&quot;&gt;coste&lt;/font&gt;&lt;/span&gt;&lt;/span&gt;&lt;/div&gt;&lt;div&gt;&lt;span&gt;&lt;span style=&quot;font-family: Arial, sans-serif; background-color: transparent; font-variant-numeric: normal; font-variant-east-asian: normal; font-variant-alternates: normal; font-variant-position: normal; font-variant-emoji: normal; vertical-align: baseline; white-space-collapse: preserve;&quot;&gt;&lt;font style=&quot;font-size: 12px;&quot;&gt;descripción&lt;/font&gt;&lt;/span&gt;&lt;/span&gt;&lt;/div&gt;" style="align=left;strokeColor=none;fillColor=none;spacingLeft=4;spacingRight=4;fontSize=12;verticalAlign=top;resizable=0;rotatable=0;part=1;html=1;whiteSpace=wrap;" vertex="1" parent="TVjpcM7RhXkUmp72Mp0O-8">
          <mxGeometry y="50" width="160" height="150" as="geometry" />
        </mxCell>
        <mxCell id="TVjpcM7RhXkUmp72Mp0O-10" value="npcs" style="swimlane;childLayout=stackLayout;horizontal=1;startSize=50;horizontalStack=0;rounded=1;fontSize=14;fontStyle=0;strokeWidth=2;resizeParent=0;resizeLast=1;shadow=0;dashed=0;align=center;arcSize=4;whiteSpace=wrap;html=1;" vertex="1" parent="TVjpcM7RhXkUmp72Mp0O-45">
          <mxGeometry y="280" width="160" height="200" as="geometry" />
        </mxCell>
        <mxCell id="TVjpcM7RhXkUmp72Mp0O-11" value="&lt;span id=&quot;docs-internal-guid-cb032e8b-7fff-1c79-c059-139ee4262b4e&quot;&gt;&lt;span style=&quot;font-family: Arial, sans-serif; background-color: transparent; font-weight: 700; font-variant-numeric: normal; font-variant-east-asian: normal; font-variant-alternates: normal; font-variant-position: normal; font-variant-emoji: normal; text-decoration-line: underline; text-decoration-skip-ink: none; vertical-align: baseline; white-space-collapse: preserve;&quot;&gt;&lt;font style=&quot;color: rgb(0, 0, 0); font-size: 12px;&quot;&gt;id&lt;/font&gt;&lt;/span&gt;&lt;/span&gt;&lt;div&gt;&lt;span&gt;&lt;span style=&quot;font-family: Arial, sans-serif; background-color: transparent; font-variant-numeric: normal; font-variant-east-asian: normal; font-variant-alternates: normal; font-variant-position: normal; font-variant-emoji: normal; vertical-align: baseline; white-space-collapse: preserve;&quot;&gt;&lt;font style=&quot;color: rgb(0, 0, 0); font-size: 12px;&quot;&gt;nombre&lt;/font&gt;&lt;/span&gt;&lt;/span&gt;&lt;/div&gt;&lt;div&gt;&lt;span&gt;&lt;span style=&quot;font-family: Arial, sans-serif; background-color: transparent; font-variant-numeric: normal; font-variant-east-asian: normal; font-variant-alternates: normal; font-variant-position: normal; font-variant-emoji: normal; vertical-align: baseline; white-space-collapse: preserve; color: rgb(0, 0, 255);&quot;&gt;&lt;font style=&quot;color: rgb(0, 0, 0); font-size: 12px;&quot;&gt;diálogo&lt;/font&gt;&lt;/span&gt;&lt;/span&gt;&lt;/div&gt;&lt;div&gt;&lt;span&gt;&lt;span style=&quot;font-family: Arial, sans-serif; background-color: transparent; font-variant-numeric: normal; font-variant-east-asian: normal; font-variant-alternates: normal; font-variant-position: normal; font-variant-emoji: normal; vertical-align: baseline; white-space-collapse: preserve; color: rgb(0, 0, 255);&quot;&gt;&lt;font style=&quot;color: rgb(0, 0, 0); font-size: 12px;&quot;&gt;gráficos&lt;/font&gt;&lt;/span&gt;&lt;/span&gt;&lt;/div&gt;&lt;div&gt;&lt;span&gt;&lt;span style=&quot;font-family: Arial, sans-serif; background-color: transparent; font-variant-numeric: normal; font-variant-east-asian: normal; font-variant-alternates: normal; font-variant-position: normal; font-variant-emoji: normal; vertical-align: baseline; white-space-collapse: preserve;&quot;&gt;&lt;font style=&quot;color: rgb(0, 0, 0); font-size: 12px;&quot;&gt;descripción&lt;/font&gt;&lt;/span&gt;&lt;/span&gt;&lt;/div&gt;" style="align=left;strokeColor=none;fillColor=none;spacingLeft=4;spacingRight=4;fontSize=12;verticalAlign=top;resizable=0;rotatable=0;part=1;html=1;whiteSpace=wrap;" vertex="1" parent="TVjpcM7RhXkUmp72Mp0O-10">
          <mxGeometry y="50" width="160" height="150" as="geometry" />
        </mxCell>
        <mxCell id="TVjpcM7RhXkUmp72Mp0O-12" value="objetos" style="swimlane;childLayout=stackLayout;horizontal=1;startSize=50;horizontalStack=0;rounded=1;fontSize=14;fontStyle=0;strokeWidth=2;resizeParent=0;resizeLast=1;shadow=0;dashed=0;align=center;arcSize=4;whiteSpace=wrap;html=1;" vertex="1" parent="TVjpcM7RhXkUmp72Mp0O-45">
          <mxGeometry x="640" y="180" width="160" height="120" as="geometry" />
        </mxCell>
        <mxCell id="TVjpcM7RhXkUmp72Mp0O-13" value="&lt;span id=&quot;docs-internal-guid-fc39a0a9-7fff-192e-9dd3-8abcf891d431&quot;&gt;&lt;span style=&quot;background-color: transparent; font-weight: 700; font-variant-numeric: normal; font-variant-east-asian: normal; font-variant-alternates: normal; font-variant-position: normal; font-variant-emoji: normal; text-decoration-line: underline; text-decoration-skip-ink: none; vertical-align: baseline; white-space-collapse: preserve;&quot;&gt;&lt;font face=&quot;Helvetica&quot; style=&quot;font-size: 12px;&quot;&gt;id&lt;/font&gt;&lt;/span&gt;&lt;/span&gt;&lt;div&gt;&lt;span&gt;&lt;span style=&quot;background-color: transparent; font-variant-numeric: normal; font-variant-east-asian: normal; font-variant-alternates: normal; font-variant-position: normal; font-variant-emoji: normal; vertical-align: baseline; white-space-collapse: preserve;&quot;&gt;&lt;font face=&quot;Helvetica&quot; style=&quot;font-size: 12px;&quot;&gt;nombre&lt;/font&gt;&lt;/span&gt;&lt;/span&gt;&lt;/div&gt;&lt;div&gt;&lt;span&gt;&lt;span style=&quot;background-color: transparent; font-variant-numeric: normal; font-variant-east-asian: normal; font-variant-alternates: normal; font-variant-position: normal; font-variant-emoji: normal; vertical-align: baseline; white-space-collapse: preserve;&quot;&gt;&lt;font face=&quot;Helvetica&quot; style=&quot;font-size: 12px; color: rgb(0, 0, 0);&quot;&gt;precio&lt;/font&gt;&lt;/span&gt;&lt;/span&gt;&lt;/div&gt;&lt;div&gt;&lt;span&gt;&lt;span style=&quot;background-color: transparent; font-variant-numeric: normal; font-variant-east-asian: normal; font-variant-alternates: normal; font-variant-position: normal; font-variant-emoji: normal; vertical-align: baseline; white-space-collapse: preserve;&quot;&gt;&lt;font face=&quot;Helvetica&quot; style=&quot;font-size: 12px;&quot;&gt;descripción&lt;/font&gt;&lt;/span&gt;&lt;/span&gt;&lt;/div&gt;" style="align=left;strokeColor=none;fillColor=none;spacingLeft=4;spacingRight=4;fontSize=12;verticalAlign=top;resizable=0;rotatable=0;part=1;html=1;whiteSpace=wrap;" vertex="1" parent="TVjpcM7RhXkUmp72Mp0O-12">
          <mxGeometry y="50" width="160" height="70" as="geometry" />
        </mxCell>
        <mxCell id="TVjpcM7RhXkUmp72Mp0O-14" value="consumibles" style="swimlane;childLayout=stackLayout;horizontal=1;startSize=50;horizontalStack=0;rounded=1;fontSize=14;fontStyle=0;strokeWidth=2;resizeParent=0;resizeLast=1;shadow=0;dashed=0;align=center;arcSize=4;whiteSpace=wrap;html=1;" vertex="1" parent="TVjpcM7RhXkUmp72Mp0O-45">
          <mxGeometry x="880" y="290" width="160" height="180" as="geometry" />
        </mxCell>
        <mxCell id="TVjpcM7RhXkUmp72Mp0O-15" value="&lt;span id=&quot;docs-internal-guid-f9f3e4e0-7fff-374b-613e-dc0f5f601f78&quot;&gt;&lt;span style=&quot;font-family: Arial, sans-serif; background-color: transparent; font-weight: 700; font-variant-numeric: normal; font-variant-east-asian: normal; font-variant-alternates: normal; font-variant-position: normal; font-variant-emoji: normal; text-decoration-line: underline; text-decoration-skip-ink: none; vertical-align: baseline; white-space-collapse: preserve;&quot;&gt;&lt;font style=&quot;color: rgb(0, 0, 0); font-size: 12px;&quot;&gt;id&lt;/font&gt;&lt;/span&gt;&lt;/span&gt;&lt;div&gt;&lt;span&gt;&lt;span style=&quot;background-color: transparent; font-variant-numeric: normal; font-variant-east-asian: normal; font-variant-alternates: normal; font-variant-position: normal; font-variant-emoji: normal; vertical-align: baseline; white-space-collapse: preserve;&quot;&gt;&lt;font face=&quot;Helvetica&quot; style=&quot;color: rgb(0, 0, 0); font-size: 12px;&quot;&gt;nombre&lt;/font&gt;&lt;/span&gt;&lt;/span&gt;&lt;/div&gt;&lt;div&gt;&lt;span&gt;&lt;span style=&quot;background-color: transparent; font-variant-numeric: normal; font-variant-east-asian: normal; font-variant-alternates: normal; font-variant-position: normal; font-variant-emoji: normal; vertical-align: baseline; white-space-collapse: preserve;&quot;&gt;&lt;font style=&quot;color: rgb(0, 0, 0); font-size: 12px;&quot;&gt;cantidad&lt;/font&gt;&lt;/span&gt;&lt;/span&gt;&lt;/div&gt;&lt;div&gt;&lt;span&gt;&lt;span style=&quot;background-color: transparent; font-variant-numeric: normal; font-variant-east-asian: normal; font-variant-alternates: normal; font-variant-position: normal; font-variant-emoji: normal; vertical-align: baseline; white-space-collapse: preserve; color: rgb(0, 0, 255);&quot;&gt;&lt;font face=&quot;Helvetica&quot; style=&quot;color: rgb(0, 0, 0); font-size: 12px;&quot;&gt;cantidad_recuperada&lt;/font&gt;&lt;/span&gt;&lt;/span&gt;&lt;/div&gt;&lt;div&gt;&lt;span&gt;&lt;span style=&quot;background-color: transparent; font-variant-numeric: normal; font-variant-east-asian: normal; font-variant-alternates: normal; font-variant-position: normal; font-variant-emoji: normal; vertical-align: baseline; white-space-collapse: preserve;&quot;&gt;&lt;font face=&quot;Helvetica&quot; style=&quot;color: rgb(0, 0, 0); font-size: 12px;&quot;&gt;usable_en_combate&lt;/font&gt;&lt;/span&gt;&lt;/span&gt;&lt;/div&gt;&lt;div&gt;&lt;span&gt;&lt;span style=&quot;background-color: transparent; font-variant-numeric: normal; font-variant-east-asian: normal; font-variant-alternates: normal; font-variant-position: normal; font-variant-emoji: normal; vertical-align: baseline; white-space-collapse: preserve;&quot;&gt;&lt;font face=&quot;Helvetica&quot; style=&quot;color: rgb(0, 0, 0); font-size: 12px;&quot;&gt;descripción&lt;/font&gt;&lt;/span&gt;&lt;/span&gt;&lt;/div&gt;" style="align=left;strokeColor=none;fillColor=none;spacingLeft=4;spacingRight=4;fontSize=12;verticalAlign=top;resizable=0;rotatable=0;part=1;html=1;whiteSpace=wrap;" vertex="1" parent="TVjpcM7RhXkUmp72Mp0O-14">
          <mxGeometry y="50" width="160" height="130" as="geometry" />
        </mxCell>
        <mxCell id="TVjpcM7RhXkUmp72Mp0O-16" value="equipos" style="swimlane;childLayout=stackLayout;horizontal=1;startSize=50;horizontalStack=0;rounded=1;fontSize=14;fontStyle=0;strokeWidth=2;resizeParent=0;resizeLast=1;shadow=0;dashed=0;align=center;arcSize=4;whiteSpace=wrap;html=1;" vertex="1" parent="TVjpcM7RhXkUmp72Mp0O-45">
          <mxGeometry x="880" y="10" width="160" height="180" as="geometry" />
        </mxCell>
        <mxCell id="TVjpcM7RhXkUmp72Mp0O-17" value="&lt;span id=&quot;docs-internal-guid-afccec8f-7fff-1338-2dec-64ad82acaad2&quot;&gt;&lt;span style=&quot;font-family: Arial, sans-serif; background-color: transparent; font-weight: 700; font-variant-numeric: normal; font-variant-east-asian: normal; font-variant-alternates: normal; font-variant-position: normal; font-variant-emoji: normal; text-decoration-line: underline; text-decoration-skip-ink: none; vertical-align: baseline; white-space-collapse: preserve;&quot;&gt;&lt;font style=&quot;font-size: 12px; color: rgb(0, 0, 0);&quot;&gt;id&lt;/font&gt;&lt;/span&gt;&lt;/span&gt;&lt;div&gt;&lt;span&gt;&lt;span style=&quot;background-color: transparent; font-variant-numeric: normal; font-variant-east-asian: normal; font-variant-alternates: normal; font-variant-position: normal; font-variant-emoji: normal; vertical-align: baseline; white-space-collapse: preserve;&quot;&gt;&lt;font face=&quot;Helvetica&quot; style=&quot;font-size: 12px; color: rgb(0, 0, 0);&quot;&gt;nombre&lt;/font&gt;&lt;/span&gt;&lt;/span&gt;&lt;/div&gt;&lt;div&gt;&lt;span&gt;&lt;span style=&quot;font-family: Arial, sans-serif; background-color: transparent; font-weight: 700; font-variant-numeric: normal; font-variant-east-asian: normal; font-variant-alternates: normal; font-variant-position: normal; font-variant-emoji: normal; vertical-align: baseline; white-space-collapse: preserve;&quot;&gt;&lt;font style=&quot;color: rgb(0, 0, 0); font-size: 12px;&quot;&gt;personaje_id&lt;/font&gt;&lt;/span&gt;&lt;/span&gt;&lt;/div&gt;&lt;div&gt;&lt;span&gt;&lt;span style=&quot;background-color: transparent; font-variant-numeric: normal; font-variant-east-asian: normal; font-variant-alternates: normal; font-variant-position: normal; font-variant-emoji: normal; vertical-align: baseline; white-space-collapse: preserve;&quot;&gt;&lt;font face=&quot;Helvetica&quot; style=&quot;color: rgb(0, 0, 0); font-size: 12px;&quot;&gt;valor_FF&lt;/font&gt;&lt;/span&gt;&lt;/span&gt;&lt;/div&gt;&lt;div&gt;&lt;span&gt;&lt;span style=&quot;background-color: transparent; font-variant-numeric: normal; font-variant-east-asian: normal; font-variant-alternates: normal; font-variant-position: normal; font-variant-emoji: normal; vertical-align: baseline; white-space-collapse: preserve;&quot;&gt;&lt;font face=&quot;Helvetica&quot; style=&quot;color: rgb(0, 0, 0); font-size: 12px;&quot;&gt;valor_RF&lt;/font&gt;&lt;/span&gt;&lt;/span&gt;&lt;/div&gt;&lt;div&gt;&lt;span&gt;&lt;span style=&quot;background-color: transparent; font-variant-numeric: normal; font-variant-east-asian: normal; font-variant-alternates: normal; font-variant-position: normal; font-variant-emoji: normal; vertical-align: baseline; white-space-collapse: preserve;&quot;&gt;&lt;font face=&quot;Helvetica&quot; style=&quot;color: rgb(0, 0, 0); font-size: 12px;&quot;&gt;valor_PM&lt;/font&gt;&lt;/span&gt;&lt;/span&gt;&lt;/div&gt;&lt;div&gt;&lt;span&gt;&lt;span style=&quot;background-color: transparent; font-variant-numeric: normal; font-variant-east-asian: normal; font-variant-alternates: normal; font-variant-position: normal; font-variant-emoji: normal; vertical-align: baseline; white-space-collapse: preserve;&quot;&gt;&lt;font face=&quot;Helvetica&quot; style=&quot;color: rgb(0, 0, 0); font-size: 12px;&quot;&gt;valor_RM&lt;/font&gt;&lt;/span&gt;&lt;/span&gt;&lt;/div&gt;&lt;div&gt;&lt;span&gt;&lt;span style=&quot;background-color: transparent; font-variant-numeric: normal; font-variant-east-asian: normal; font-variant-alternates: normal; font-variant-position: normal; font-variant-emoji: normal; vertical-align: baseline; white-space-collapse: preserve;&quot;&gt;&lt;font face=&quot;Helvetica&quot; style=&quot;color: rgb(0, 0, 0); font-size: 12px;&quot;&gt;descripción&lt;/font&gt;&lt;/span&gt;&lt;/span&gt;&lt;/div&gt;" style="align=left;strokeColor=none;fillColor=none;spacingLeft=4;spacingRight=4;fontSize=12;verticalAlign=top;resizable=0;rotatable=0;part=1;html=1;whiteSpace=wrap;" vertex="1" parent="TVjpcM7RhXkUmp72Mp0O-16">
          <mxGeometry y="50" width="160" height="130" as="geometry" />
        </mxCell>
        <mxCell id="TVjpcM7RhXkUmp72Mp0O-20" value="" style="endArrow=none;html=1;rounded=0;entryX=0;entryY=0.829;entryDx=0;entryDy=0;entryPerimeter=0;exitX=1;exitY=0.5;exitDx=0;exitDy=0;" edge="1" parent="TVjpcM7RhXkUmp72Mp0O-45" source="PDoaly09riqW8v3KBpbK-47" target="TVjpcM7RhXkUmp72Mp0O-5">
          <mxGeometry relative="1" as="geometry">
            <mxPoint x="340" y="320" as="sourcePoint" />
            <mxPoint x="500" y="320" as="targetPoint" />
          </mxGeometry>
        </mxCell>
        <mxCell id="TVjpcM7RhXkUmp72Mp0O-21" value="" style="endArrow=none;html=1;rounded=0;exitX=1;exitY=0.5;exitDx=0;exitDy=0;entryX=0;entryY=0.5;entryDx=0;entryDy=0;" edge="1" parent="TVjpcM7RhXkUmp72Mp0O-45" source="TVjpcM7RhXkUmp72Mp0O-10" target="PDoaly09riqW8v3KBpbK-47">
          <mxGeometry relative="1" as="geometry">
            <mxPoint x="330" y="350" as="sourcePoint" />
            <mxPoint x="490" y="350" as="targetPoint" />
          </mxGeometry>
        </mxCell>
        <mxCell id="TVjpcM7RhXkUmp72Mp0O-23" value="" style="endArrow=none;html=1;rounded=0;entryX=1;entryY=0.5;entryDx=0;entryDy=0;exitX=0;exitY=0.029;exitDx=0;exitDy=0;exitPerimeter=0;" edge="1" parent="TVjpcM7RhXkUmp72Mp0O-45" source="TVjpcM7RhXkUmp72Mp0O-5" target="PDoaly09riqW8v3KBpbK-45">
          <mxGeometry relative="1" as="geometry">
            <mxPoint x="350" y="180" as="sourcePoint" />
            <mxPoint x="500" y="250" as="targetPoint" />
          </mxGeometry>
        </mxCell>
        <mxCell id="TVjpcM7RhXkUmp72Mp0O-24" value="" style="endArrow=none;html=1;rounded=0;exitX=1.008;exitY=0.334;exitDx=0;exitDy=0;exitPerimeter=0;entryX=0;entryY=0.5;entryDx=0;entryDy=0;" edge="1" parent="TVjpcM7RhXkUmp72Mp0O-45" source="TVjpcM7RhXkUmp72Mp0O-9" target="PDoaly09riqW8v3KBpbK-45">
          <mxGeometry relative="1" as="geometry">
            <mxPoint x="200" y="200" as="sourcePoint" />
            <mxPoint x="360" y="200" as="targetPoint" />
          </mxGeometry>
        </mxCell>
        <mxCell id="TVjpcM7RhXkUmp72Mp0O-25" value="" style="endArrow=none;html=1;rounded=0;entryX=0;entryY=0.5;entryDx=0;entryDy=0;exitX=1;exitY=0.5;exitDx=0;exitDy=0;" edge="1" parent="TVjpcM7RhXkUmp72Mp0O-45" source="PDoaly09riqW8v3KBpbK-22" target="TVjpcM7RhXkUmp72Mp0O-12">
          <mxGeometry relative="1" as="geometry">
            <mxPoint x="530" y="220" as="sourcePoint" />
            <mxPoint x="690" y="220" as="targetPoint" />
          </mxGeometry>
        </mxCell>
        <mxCell id="TVjpcM7RhXkUmp72Mp0O-26" value="" style="endArrow=none;html=1;rounded=0;exitX=1.001;exitY=0.429;exitDx=0;exitDy=0;exitPerimeter=0;entryX=0;entryY=0.5;entryDx=0;entryDy=0;" edge="1" parent="TVjpcM7RhXkUmp72Mp0O-45" source="TVjpcM7RhXkUmp72Mp0O-5" target="PDoaly09riqW8v3KBpbK-22">
          <mxGeometry relative="1" as="geometry">
            <mxPoint x="530" y="220" as="sourcePoint" />
            <mxPoint x="690" y="220" as="targetPoint" />
          </mxGeometry>
        </mxCell>
        <mxCell id="TVjpcM7RhXkUmp72Mp0O-29" value="" style="endArrow=none;html=1;rounded=0;entryX=1;entryY=0.5;entryDx=0;entryDy=0;exitX=0.5;exitY=0;exitDx=0;exitDy=0;" edge="1" parent="TVjpcM7RhXkUmp72Mp0O-45" source="TVjpcM7RhXkUmp72Mp0O-14" target="PDoaly09riqW8v3KBpbK-28">
          <mxGeometry relative="1" as="geometry">
            <mxPoint x="980" y="290" as="sourcePoint" />
            <mxPoint x="860" y="260" as="targetPoint" />
            <Array as="points">
              <mxPoint x="960" y="260" />
              <mxPoint x="930" y="260" />
              <mxPoint x="930" y="240" />
            </Array>
          </mxGeometry>
        </mxCell>
        <mxCell id="TVjpcM7RhXkUmp72Mp0O-31" value="" style="endArrow=none;html=1;rounded=0;exitX=0.5;exitY=1;exitDx=0;exitDy=0;" edge="1" parent="TVjpcM7RhXkUmp72Mp0O-45" source="TVjpcM7RhXkUmp72Mp0O-17">
          <mxGeometry relative="1" as="geometry">
            <mxPoint x="710" y="200" as="sourcePoint" />
            <mxPoint x="930" y="240" as="targetPoint" />
            <Array as="points">
              <mxPoint x="960" y="220" />
              <mxPoint x="930" y="220" />
            </Array>
          </mxGeometry>
        </mxCell>
        <mxCell id="TVjpcM7RhXkUmp72Mp0O-32" value="" style="endArrow=none;html=1;rounded=0;entryX=0;entryY=0.5;entryDx=0;entryDy=0;" edge="1" parent="TVjpcM7RhXkUmp72Mp0O-45" target="PDoaly09riqW8v3KBpbK-24">
          <mxGeometry relative="1" as="geometry">
            <mxPoint x="800" y="240" as="sourcePoint" />
            <mxPoint x="910" y="200" as="targetPoint" />
          </mxGeometry>
        </mxCell>
        <mxCell id="TVjpcM7RhXkUmp72Mp0O-35" value="" style="endArrow=none;html=1;rounded=0;exitX=1;exitY=0.5;exitDx=0;exitDy=0;entryX=-0.013;entryY=0.309;entryDx=0;entryDy=0;entryPerimeter=0;" edge="1" parent="TVjpcM7RhXkUmp72Mp0O-45" source="PDoaly09riqW8v3KBpbK-12" target="TVjpcM7RhXkUmp72Mp0O-15">
          <mxGeometry relative="1" as="geometry">
            <mxPoint x="660" y="270" as="sourcePoint" />
            <mxPoint x="850" y="390" as="targetPoint" />
          </mxGeometry>
        </mxCell>
        <mxCell id="TVjpcM7RhXkUmp72Mp0O-36" value="" style="endArrow=none;html=1;rounded=0;entryX=0;entryY=0.5;entryDx=0;entryDy=0;exitX=1.001;exitY=0.827;exitDx=0;exitDy=0;exitPerimeter=0;" edge="1" parent="TVjpcM7RhXkUmp72Mp0O-45" source="TVjpcM7RhXkUmp72Mp0O-5" target="PDoaly09riqW8v3KBpbK-12">
          <mxGeometry relative="1" as="geometry">
            <mxPoint x="740" y="370" as="sourcePoint" />
            <mxPoint x="900" y="370" as="targetPoint" />
          </mxGeometry>
        </mxCell>
        <mxCell id="TVjpcM7RhXkUmp72Mp0O-37" value="" style="endArrow=none;html=1;rounded=0;entryX=0;entryY=0.5;entryDx=0;entryDy=0;exitX=1.015;exitY=0.027;exitDx=0;exitDy=0;exitPerimeter=0;" edge="1" parent="TVjpcM7RhXkUmp72Mp0O-45" source="TVjpcM7RhXkUmp72Mp0O-5" target="PDoaly09riqW8v3KBpbK-15">
          <mxGeometry relative="1" as="geometry">
            <mxPoint x="410" y="170" as="sourcePoint" />
            <mxPoint x="570" y="170" as="targetPoint" />
          </mxGeometry>
        </mxCell>
        <mxCell id="TVjpcM7RhXkUmp72Mp0O-38" value="" style="endArrow=none;html=1;rounded=0;exitX=1;exitY=0.5;exitDx=0;exitDy=0;" edge="1" parent="TVjpcM7RhXkUmp72Mp0O-45" source="PDoaly09riqW8v3KBpbK-15">
          <mxGeometry relative="1" as="geometry">
            <mxPoint x="410" y="200" as="sourcePoint" />
            <mxPoint x="880" y="100" as="targetPoint" />
          </mxGeometry>
        </mxCell>
        <mxCell id="TVjpcM7RhXkUmp72Mp0O-39" value="1:N" style="text;html=1;align=center;verticalAlign=middle;resizable=0;points=[];autosize=1;strokeColor=none;fillColor=none;" vertex="1" parent="TVjpcM7RhXkUmp72Mp0O-45">
          <mxGeometry x="240" y="330" width="40" height="30" as="geometry" />
        </mxCell>
        <mxCell id="TVjpcM7RhXkUmp72Mp0O-40" value="1:N" style="text;html=1;align=center;verticalAlign=middle;resizable=0;points=[];autosize=1;strokeColor=none;fillColor=none;" vertex="1" parent="TVjpcM7RhXkUmp72Mp0O-45">
          <mxGeometry x="240" y="50" width="40" height="30" as="geometry" />
        </mxCell>
        <mxCell id="TVjpcM7RhXkUmp72Mp0O-41" value="1:N" style="text;html=1;align=center;verticalAlign=middle;resizable=0;points=[];autosize=1;strokeColor=none;fillColor=none;" vertex="1" parent="TVjpcM7RhXkUmp72Mp0O-45">
          <mxGeometry x="680" y="50" width="40" height="30" as="geometry" />
        </mxCell>
        <mxCell id="TVjpcM7RhXkUmp72Mp0O-42" value="N:M" style="text;html=1;align=center;verticalAlign=middle;resizable=0;points=[];autosize=1;strokeColor=none;fillColor=none;" vertex="1" parent="TVjpcM7RhXkUmp72Mp0O-45">
          <mxGeometry x="675" y="330" width="50" height="30" as="geometry" />
        </mxCell>
        <mxCell id="TVjpcM7RhXkUmp72Mp0O-43" value="1:N" style="text;html=1;align=center;verticalAlign=middle;resizable=0;points=[];autosize=1;strokeColor=none;fillColor=none;" vertex="1" parent="TVjpcM7RhXkUmp72Mp0O-45">
          <mxGeometry x="560" y="190" width="40" height="30" as="geometry" />
        </mxCell>
      </root>
    </mxGraphModel>
  </diagram>
</mxfile>
